<svg width="89" height="17" viewBox="0 0 89 17" fill="none" xmlns="http://www.w3.org/2000/svg">
<path d="M0.485795 6.77273V3.90909H11.8636V6.77273H7.92614V17H4.4233V6.77273H0.485795ZM13.2012 17V3.90909H22.6358V6.77273H16.7551V9.02273H22.15V11.8864H16.7551V14.1364H22.6103V17H13.2012ZM24.3984 17V3.90909H27.9524V9.02273H32.657V3.90909H36.2109V17H32.657V11.8864H27.9524V17H24.3984ZM36.6776 17L37.0163 15.0312L37.3871 15.0121C37.8942 14.9822 38.3224 14.8011 38.6719 14.4688C39.0256 14.1364 39.3345 13.6016 39.5987 12.8643C39.8629 12.1271 40.1186 11.1385 40.3658 9.89844L41.5803 3.90909H50.1584L47.9851 17H45.6648L47.5185 5.85866H43.4723L42.4688 10.6335C42.1705 12.0653 41.8168 13.2521 41.4077 14.1939C40.9986 15.1357 40.468 15.8388 39.8161 16.3033C39.1683 16.7678 38.3352 17 37.3168 17H36.6776ZM52.2518 17H49.7205L56.5025 3.90909H59.43L61.8718 17H59.3406L57.5827 6.59375H57.4805L52.2518 17ZM53.185 11.8672H60.0884L59.7688 13.772H52.8654L53.185 11.8672ZM65.7694 3.90909H68.1216L66.6515 12.8324H66.7665L74.3986 3.90909H76.5272L74.3539 17H71.9824L73.4654 8.0831H73.3567L65.699 17H63.5961L65.7694 3.90909ZM72.9284 0.534091H74.6607C74.5371 1.27983 74.1664 1.88494 73.5485 2.34943C72.9348 2.80966 72.1678 3.03977 71.2473 3.03977C70.3354 3.03977 69.6493 2.80966 69.1891 2.34943C68.7289 1.88494 68.5605 1.27983 68.6841 0.534091H70.41C70.3588 0.840909 70.4078 1.11577 70.557 1.35866C70.7104 1.5973 71.0151 1.71662 71.4711 1.71662C71.9228 1.71662 72.2658 1.5973 72.5002 1.35866C72.7346 1.12003 72.8773 0.84517 72.9284 0.534091ZM78.2035 5.89702L78.5359 3.90909H88.9805L88.6481 5.89702H84.6019L82.761 17H80.4087L82.2496 5.89702H78.2035Z" fill="#F8F8F8"/>
</svg>
