<svg width="89" height="17" viewBox="0 0 89 17" fill="none" xmlns="http://www.w3.org/2000/svg">
<path d="M0 6.23864V3.375H11.3778V6.23864H7.44034V16.4659H3.9375V6.23864H0Z" fill="#F8F8F8"/>
<path d="M12.7154 16.4659V3.375H22.15V6.23864H16.2694V8.48864H21.6642V11.3523H16.2694V13.6023H22.1245V16.4659H12.7154Z" fill="#F8F8F8"/>
<path d="M23.9126 16.4659V3.375H27.4666V8.48864H32.1712V3.375H35.7251V16.4659H32.1712V11.3523H27.4666V16.4659H23.9126Z" fill="#F8F8F8"/>
<path d="M36.1918 16.4659L36.5305 14.4972L36.9013 14.478C37.4084 14.4482 37.8367 14.267 38.1861 13.9347C38.5398 13.6023 38.8487 13.0675 39.1129 12.3303C39.3771 11.593 39.6328 10.6044 39.88 9.36435L41.0945 3.375H49.6726L47.4993 16.4659H45.179L47.0327 5.32457H42.9865L41.983 10.0994C41.6847 11.5312 41.331 12.718 40.9219 13.6598C40.5128 14.6016 39.9822 15.3047 39.3303 15.7692C38.6825 16.2337 37.8494 16.4659 36.831 16.4659H36.1918Z" fill="#F8F8F8"/>
<path d="M51.766 16.4659H49.2347L56.0167 3.375H58.9442L61.386 16.4659H58.8548L57.0969 6.05966H56.9947L51.766 16.4659ZM52.6992 11.3331H59.6026L59.283 13.2379H52.3796L52.6992 11.3331Z" fill="#F8F8F8"/>
<path d="M65.2836 3.375H67.6358L66.1657 12.2983H66.2807L73.9128 3.375H76.0414L73.8681 16.4659H71.4966L72.9796 7.54901H72.8709L65.2132 16.4659H63.1103L65.2836 3.375ZM72.4426 0H74.1749C74.0513 0.745739 73.6806 1.35085 73.0627 1.81534C72.449 2.27557 71.682 2.50568 70.7615 2.50568C69.8496 2.50568 69.1635 2.27557 68.7033 1.81534C68.2431 1.35085 68.0748 0.745739 68.1983 0H69.9242C69.873 0.306818 69.9221 0.581676 70.0712 0.824573C70.2246 1.06321 70.5293 1.18253 70.9853 1.18253C71.437 1.18253 71.78 1.06321 72.0144 0.824573C72.2488 0.585938 72.3915 0.31108 72.4426 0Z" fill="#F8F8F8"/>
<path d="M77.7177 5.36293L78.0501 3.375H88.4947L88.1623 5.36293H84.1161L82.2752 16.4659H79.9229L81.7638 5.36293H77.7177Z" fill="#F8F8F8"/>
</svg>
