<svg width="68" height="68" viewBox="0 0 68 68" fill="none" xmlns="http://www.w3.org/2000/svg">
<rect width="68" height="68" fill="#222222"/>
<path d="M6.07955 26.2727V19.9091H31.3636V26.2727H22.6136V49H14.8295V26.2727H6.07955ZM31.6229 49L32.3757 44.625L33.1996 44.5824C34.3265 44.5161 35.2782 44.1136 36.0547 43.375C36.8407 42.6364 37.5272 41.4479 38.1143 39.8097C38.7015 38.1714 39.2696 35.9744 39.8189 33.2188L42.5178 19.9091H61.5803L56.7507 49H51.5945L55.7138 24.2415H46.7223L44.4922 34.8523C43.8293 38.0341 43.0433 40.6714 42.1342 42.7642C41.2251 44.857 40.0462 46.4195 38.5973 47.4517C37.1579 48.4839 35.3066 49 33.0433 49H31.6229Z" fill="#F8F8F8"/>
</svg>
